<svg xmlns="http://www.w3.org/2000/svg" xmlns:xlink="http://www.w3.org/1999/xlink" xmlns:svgjs="http://svgjs.dev/svgjs" width="1500" height="1500"><svg viewBox="0 0 141 141" data-background-color="#b6ff00" height="1500" width="1500" xmlns="http://www.w3.org/2000/svg" xmlns:xlink="http://www.w3.org/1999/xlink" transform="translate(-2.122 -2.122)"><svg viewBox="0 0 140.601 140.601" height="140.601" width="140.601" transform="translate(.2 .2)"><svg viewBox="0 0 140.601 140.601" height="140.601" width="140.601"><svg viewBox="0 0 140.601 140.601" height="140.601" width="140.601"><path d="M0 140.601V0h140.601v140.601z" fill="#6a01fe" data-fill-palette-color="tertiary"/><path d="M3.283 137.317V3.283h134.034v134.034z" fill="#b6ff00" data-fill-palette-color="quaternary"/><path d="M9.85 130.751V9.85h120.901v120.901z" fill="#6a01fe" data-fill-palette-color="tertiary"/><g transform="translate(19.7 19.7)"><svg viewBox="0 0 101.201 101.201" height="101.201" width="101.201"><svg viewBox="0 0 101.201 101.201" height="101.201" width="101.201"><svg width="101.201" viewBox="3.22 -35.01 35.01 35.01" height="101.201" data-palette-color="#b6ff00"><path d="M38.23-17.5v14.3q0 .69-.24 1.27-.25.59-.67 1.01-.43.43-1.02.68-.58.24-1.27.24h-22.9q-.88 0-1.89-.21-1.01-.21-2-.64-.99-.44-1.89-1.14-.91-.7-1.6-1.68-.7-.99-1.11-2.3-.42-1.31-.42-2.94V-26.1q0-.88.21-1.89.21-1.01.65-2 .44-.99 1.14-1.89.71-.91 1.7-1.6.99-.7 2.28-1.11 1.3-.42 2.93-.42h25.81v6.35H12.13q-1.24 0-1.9.66-.66.66-.66 1.95v17.14q0 1.22.67 1.89.67.67 1.89.67h19.75v-7.96H14.99v-6.39h20.04q.69 0 1.27.25.59.26 1.02.7.42.44.67 1.01.24.58.24 1.24z" fill="#b6ff00" class="wordmark-text-0" data-fill-palette-color="quaternary"/></svg></svg></svg></g></svg></svg></svg></svg></svg>